<svg xmlns="http://www.w3.org/2000/svg" xmlns:xlink="http://www.w3.org/1999/xlink" width="411" height="69" viewBox="0 0 411 69">
  <defs>
    <clipPath id="clip-path">
      <rect id="長方形_1" data-name="長方形 1" width="411" height="69" transform="translate(729 462)" fill="rgba(255,0,0,0.26)"/>
    </clipPath>
  </defs>
  <g id="マスクグループ_1" data-name="マスクグループ 1" transform="translate(-729 -462)" clip-path="url(#clip-path)">
    <g id="logo" transform="translate(684 247.241)">
      <g id="グループ_4" data-name="グループ 4">
        <g id="グループ_3" data-name="グループ 3">
          <g id="グループ_2" data-name="グループ 2">
            <g id="グループ_1" data-name="グループ 1">
              <path id="パス_1" data-name="パス 1" d="M62.729,277.387V230.251H53.086a2.7,2.7,0,0,1-2.392-1A7.634,7.634,0,0,1,50,225.391q0-4.4,2.623-4.4H80.7q4.474,0,4.474,2.392,0,6.866-3.7,6.866l-8.64-.077.694,15.661.077,31.4a14.851,14.851,0,0,1-.077,1.929q-.309,1.08-3.009,1.08-7.792,0-7.792-2.854Z" fill="#181d1d"/>
              <path id="パス_2" data-name="パス 2" d="M129.306,243.906q3.086,0,3.086,2.777a19.046,19.046,0,0,1-.463,5.169q-.463,1.389-2.392,1.389h-15.12v16.432h17.821a3.992,3.992,0,0,1,2.546.733,2.582,2.582,0,0,1,.694,1.967,13.319,13.319,0,0,1-.694,5.207,2.78,2.78,0,0,1-2.777,1.427H104.851l-1.234-1.234V220.994H131q3.317.077,3.317,2.469-.077,2.083-.231,3.279a5.272,5.272,0,0,1-.964,2.353,2.693,2.693,0,0,1-2.353,1.157h-17.2l.849,13.655Z" fill="#181d1d"/>
              <path id="パス_3" data-name="パス 3" d="M155.535,273.375a5.894,5.894,0,0,1-1.62-3.047q0-1.041,1.813-2.854a8.714,8.714,0,0,1,2.392-1.967,4.335,4.335,0,0,1,1.119-.154,4.41,4.41,0,0,1,1.774.694q5.709,4.474,10.029,4.474t5.632-2.006a9.439,9.439,0,0,0,1.311-5.246,6.61,6.61,0,0,0-2.314-5.246,44.826,44.826,0,0,0-7.6-4.86,32.512,32.512,0,0,1-9.219-7.406q-3.934-4.552-3.934-9.412,0-8.64,4.513-12.613t13.23-3.973a23.044,23.044,0,0,1,10.415,2.546q2.7,1.08,2.546,2.237-.077.463-.154,1.389Q184,230.1,183.23,230.713a2.209,2.209,0,0,1-1.041.154,19.381,19.381,0,0,1-4.282-1.273,17.715,17.715,0,0,0-5.9-1.273,5.367,5.367,0,0,0-4.05,1.7,6.651,6.651,0,0,0-1.62,4.783,7.425,7.425,0,0,0,2.777,5.593,35.456,35.456,0,0,0,8.563,5.207,32.122,32.122,0,0,1,9.142,6.557q3.047,3.394,3.047,9.1,0,18.978-16.046,18.978-11.958,0-18.283-6.866Z" fill="#181d1d"/>
              <path id="パス_4" data-name="パス 4" d="M219.8,277.387V230.251h-9.643a2.7,2.7,0,0,1-2.392-1,7.634,7.634,0,0,1-.694-3.857q0-4.4,2.623-4.4h28.081q4.474,0,4.474,2.392,0,6.866-3.7,6.866l-8.64-.077.694,15.661.077,31.4a14.852,14.852,0,0,1-.077,1.929q-.309,1.08-3.009,1.08-7.792,0-7.792-2.854Z" fill="#181d1d"/>
              <path id="パス_5" data-name="パス 5" d="M270.482,277.387V230.251h-9.643a2.7,2.7,0,0,1-2.392-1,7.634,7.634,0,0,1-.694-3.857q0-4.4,2.623-4.4h28.081q4.474,0,4.474,2.392,0,6.866-3.7,6.866l-8.64-.077.694,15.661.077,31.4a14.852,14.852,0,0,1-.077,1.929q-.309,1.08-3.009,1.08-7.792,0-7.792-2.854Z" fill="#181d1d"/>
              <path id="パス_6" data-name="パス 6" d="M337.059,243.906q3.086,0,3.086,2.777a19.047,19.047,0,0,1-.463,5.169q-.463,1.389-2.392,1.389H322.17v16.432h17.821a3.992,3.992,0,0,1,2.546.733,2.582,2.582,0,0,1,.694,1.967,13.319,13.319,0,0,1-.694,5.207,2.78,2.78,0,0,1-2.777,1.427H312.6l-1.234-1.234V220.994h27.387q3.317.077,3.317,2.469-.077,2.083-.231,3.279a5.272,5.272,0,0,1-.964,2.353,2.693,2.693,0,0,1-2.353,1.157h-17.2l.849,13.655Z" fill="#181d1d"/>
              <path id="パス_7" data-name="パス 7" d="M363.288,273.375a5.894,5.894,0,0,1-1.62-3.047q0-1.041,1.813-2.854a8.715,8.715,0,0,1,2.392-1.967,4.335,4.335,0,0,1,1.119-.154,4.41,4.41,0,0,1,1.774.694q5.709,4.474,10.029,4.474t5.632-2.006a9.439,9.439,0,0,0,1.311-5.246,6.61,6.61,0,0,0-2.314-5.246,44.826,44.826,0,0,0-7.6-4.86,32.512,32.512,0,0,1-9.219-7.406q-3.934-4.552-3.934-9.412,0-8.64,4.513-12.613t13.23-3.973a23.044,23.044,0,0,1,10.415,2.546q2.7,1.08,2.546,2.237-.077.463-.154,1.389-1.466,4.166-2.237,4.783a2.209,2.209,0,0,1-1.041.154,19.381,19.381,0,0,1-4.282-1.273,17.714,17.714,0,0,0-5.9-1.273,5.367,5.367,0,0,0-4.05,1.7,6.651,6.651,0,0,0-1.62,4.783,7.425,7.425,0,0,0,2.777,5.593,35.456,35.456,0,0,0,8.563,5.207,32.122,32.122,0,0,1,9.142,6.557q3.047,3.394,3.047,9.1,0,18.978-16.046,18.978-11.958,0-18.284-6.866Z" fill="#181d1d"/>
              <path id="パス_8" data-name="パス 8" d="M427.551,277.387V230.251h-9.643a2.7,2.7,0,0,1-2.392-1,7.634,7.634,0,0,1-.694-3.857q0-4.4,2.623-4.4h28.081q4.474,0,4.474,2.392,0,6.866-3.7,6.866l-8.64-.077.694,15.661.077,31.4a14.852,14.852,0,0,1-.077,1.929q-.309,1.08-3.009,1.08-7.792,0-7.792-2.854Z" fill="#181d1d"/>
            </g>
          </g>
        </g>
      </g>
    </g>
  </g>
</svg>
